<?xml version="1.0" encoding="UTF-8" standalone="no"?>
<!-- Generator: Adobe Illustrator 19.0.0, SVG Export Plug-In . SVG Version: 6.00 Build 0)  -->

<svg
   xmlns:dc="http://purl.org/dc/elements/1.1/"
   xmlns:cc="http://creativecommons.org/ns#"
   xmlns:rdf="http://www.w3.org/1999/02/22-rdf-syntax-ns#"
   xmlns:svg="http://www.w3.org/2000/svg"
   xmlns="http://www.w3.org/2000/svg"
   xmlns:sodipodi="http://sodipodi.sourceforge.net/DTD/sodipodi-0.dtd"
   xmlns:inkscape="http://www.inkscape.org/namespaces/inkscape"
   version="1.1"
   id="Capa_1"
   x="0px"
   y="0px"
   viewBox="0 0 384 384"
   style="enable-background:new 0 0 384 384;"
   xml:space="preserve"
   sodipodi:docname="_todo-list__item__drag-point__image_hand_closed.svg"
   inkscape:version="0.92.2 (30a58d1, 2017-08-07)"><metadata
     id="metadata43"><rdf:RDF><cc:Work
         rdf:about=""><dc:format>image/svg+xml</dc:format><dc:type
           rdf:resource="http://purl.org/dc/dcmitype/StillImage" /></cc:Work></rdf:RDF></metadata><defs
     id="defs41" /><sodipodi:namedview
     pagecolor="#ffffff"
     bordercolor="#666666"
     borderopacity="1"
     objecttolerance="10"
     gridtolerance="10"
     guidetolerance="10"
     inkscape:pageopacity="0"
     inkscape:pageshadow="2"
     inkscape:window-width="1366"
     inkscape:window-height="705"
     id="namedview39"
     showgrid="false"
     inkscape:zoom="0.61458333"
     inkscape:cx="192"
     inkscape:cy="192"
     inkscape:window-x="0"
     inkscape:window-y="24"
     inkscape:window-maximized="1"
     inkscape:current-layer="Capa_1" /><g
     id="g6"
     style="fill:#ffffff;stroke:#fffffc;stroke-width:23.29999924;stroke-miterlimit:4;stroke-dasharray:none;stroke-opacity:1"
     transform="matrix(0.81623507,0,0,0.81623507,35.282867,35.282867)"><g
       id="g4"
       style="fill:#ffffff;stroke:#fffffc;stroke-width:23.29999924;stroke-miterlimit:4;stroke-dasharray:none;stroke-opacity:1"><path
         d="m 320,53.333 c -7.875,0 -15.26,2.146 -21.604,5.885 C 296.01,37.927 277.906,21.333 256,21.333 247.219,21.333 239.062,24 232.271,28.552 226.427,11.948 210.583,0 192,0 173.417,0 157.573,11.948 151.729,28.552 144.938,24 136.781,21.333 128,21.333 104.469,21.333 85.333,40.468 85.333,64 v 106.667 c 0,5.885 -4.781,10.667 -10.667,10.667 -5.885,0 -10.667,-4.781 -10.667,-10.667 v -20.531 c 0,-4.448 -2.76,-8.427 -6.927,-9.99 -4.146,-1.542 -8.844,-0.375 -11.781,2.979 -15.448,17.719 -23.958,40.052 -23.958,62.885 0,98.146 79.844,177.99 177.99,177.99 H 224 c 76.458,0 138.667,-62.208 138.667,-138.667 V 96 C 362.667,72.469 343.531,53.333 320,53.333 Z"
         id="path2"
         inkscape:connector-curvature="0"
         style="fill:#ffffff;stroke:#fffffc;stroke-width:23.29999924;stroke-miterlimit:4;stroke-dasharray:none;stroke-opacity:1" /></g></g><g
     id="g8" /><g
     id="g10" /><g
     id="g12" /><g
     id="g14" /><g
     id="g16" /><g
     id="g18" /><g
     id="g20" /><g
     id="g22" /><g
     id="g24" /><g
     id="g26" /><g
     id="g28" /><g
     id="g30" /><g
     id="g32" /><g
     id="g34" /><g
     id="g36" /></svg>