<?xml version="1.0" encoding="UTF-8" standalone="no"?>
<!-- Generator: Adobe Illustrator 18.1.1, SVG Export Plug-In . SVG Version: 6.00 Build 0)  -->

<svg
   xmlns:dc="http://purl.org/dc/elements/1.1/"
   xmlns:cc="http://creativecommons.org/ns#"
   xmlns:rdf="http://www.w3.org/1999/02/22-rdf-syntax-ns#"
   xmlns:svg="http://www.w3.org/2000/svg"
   xmlns="http://www.w3.org/2000/svg"
   xmlns:sodipodi="http://sodipodi.sourceforge.net/DTD/sodipodi-0.dtd"
   xmlns:inkscape="http://www.inkscape.org/namespaces/inkscape"
   version="1.1"
   id="Capa_1"
   x="0px"
   y="0px"
   viewBox="0 0 26 26"
   style="enable-background:new 0 0 26 26;"
   xml:space="preserve"
   sodipodi:docname="_todo-list__item__drag-point__image_hand_open.svg"
   inkscape:version="0.92.2 (30a58d1, 2017-08-07)"
   inkscape:export-filename="/home/pawel/PROGRAMOWANIE/todo_list_project4/src/components/todo-app/__todo-list/__todo-list__item/_todo-list__item__images/_todo-list__item__drag-point__image_hand_open.png"
   inkscape:export-xdpi="96"
   inkscape:export-ydpi="96"><metadata
     id="metadata49"><rdf:RDF><cc:Work
         rdf:about=""><dc:format>image/svg+xml</dc:format><dc:type
           rdf:resource="http://purl.org/dc/dcmitype/StillImage" /></cc:Work></rdf:RDF></metadata><defs
     id="defs47" /><sodipodi:namedview
     pagecolor="#ffffff"
     bordercolor="#666666"
     borderopacity="1"
     objecttolerance="10"
     gridtolerance="10"
     guidetolerance="10"
     inkscape:pageopacity="0"
     inkscape:pageshadow="2"
     inkscape:window-width="1366"
     inkscape:window-height="705"
     id="namedview45"
     showgrid="false"
     inkscape:zoom="9.0769231"
     inkscape:cx="-17.511282"
     inkscape:cy="17.40678"
     inkscape:window-x="0"
     inkscape:window-y="24"
     inkscape:window-maximized="1"
     inkscape:current-layer="Capa_1" /><g
     id="g12"
     style="fill:#c8c7c7;fill-opacity:1"
     transform="matrix(0.60294506,0,0,0.60294506,5.1751447,5.3983051)"><circle
       style="fill:#c8c7c7;fill-opacity:1"
       cx="21.732"
       cy="5.5"
       r="1.5"
       id="circle2" /><circle
       style="fill:#c8c7c7;fill-opacity:1"
       cx="17.732"
       cy="2.5"
       r="1.5"
       id="circle4" /><circle
       style="fill:#c8c7c7;fill-opacity:1"
       cx="13.732"
       cy="1.5"
       r="1.5"
       id="circle6" /><circle
       style="fill:#c8c7c7;fill-opacity:1"
       cx="9.7320004"
       cy="3.5"
       r="1.5"
       id="circle8" /><path
       style="fill:#c8c7c7;fill-opacity:1"
       d="M 20.232,5.5 V 12 c 0,0.276 -0.224,0.5 -0.5,0.5 -0.276,0 -0.5,-0.224 -0.5,-0.5 V 2.5 h -3 V 11 c 0,0.276 -0.224,0.5 -0.5,0.5 -0.276,0 -0.5,-0.224 -0.5,-0.5 V 1.5 h -3 V 11 c 0,0.276 -0.224,0.5 -0.5,0.5 -0.276,0 -0.5,-0.224 -0.5,-0.5 V 3.5 h -3 V 16 L 6.207,13.229 c -0.6,-0.925 -1.771,-1.235 -2.629,-0.705 -0.855,0.542 -1.067,1.724 -0.475,2.646 0,0 3.266,4.943 4.658,7.059 1.392,2.116 3.647,3.771 7.864,3.771 6.982,0 7.607,-5.392 7.607,-7 0,-1.608 0,-13.5 0,-13.5 z"
       id="path10"
       inkscape:connector-curvature="0" /></g><g
     id="g14" /><g
     id="g16" /><g
     id="g18" /><g
     id="g20" /><g
     id="g22" /><g
     id="g24" /><g
     id="g26" /><g
     id="g28" /><g
     id="g30" /><g
     id="g32" /><g
     id="g34" /><g
     id="g36" /><g
     id="g38" /><g
     id="g40" /><g
     id="g42" /></svg>