<?xml version="1.0" encoding="UTF-8" standalone="no"?>
<svg
   xmlns:dc="http://purl.org/dc/elements/1.1/"
   xmlns:cc="http://creativecommons.org/ns#"
   xmlns:rdf="http://www.w3.org/1999/02/22-rdf-syntax-ns#"
   xmlns:svg="http://www.w3.org/2000/svg"
   xmlns="http://www.w3.org/2000/svg"
   xmlns:sodipodi="http://sodipodi.sourceforge.net/DTD/sodipodi-0.dtd"
   xmlns:inkscape="http://www.inkscape.org/namespaces/inkscape"
   height="18px"
   version="1.1"
   viewBox="0 0 18 18"
   width="18px"
   id="svg2141"
   sodipodi:docname="_todo-list__item__images_save.svg"
   inkscape:version="0.92.2 (30a58d1, 2017-08-07)">
  <metadata
     id="metadata2145">
    <rdf:RDF>
      <cc:Work
         rdf:about="">
        <dc:format>image/svg+xml</dc:format>
        <dc:type
           rdf:resource="http://purl.org/dc/dcmitype/StillImage" />
      </cc:Work>
    </rdf:RDF>
  </metadata>
  <sodipodi:namedview
     pagecolor="#ffffff"
     bordercolor="#666666"
     borderopacity="1"
     objecttolerance="10"
     gridtolerance="10"
     guidetolerance="10"
     inkscape:pageopacity="0"
     inkscape:pageshadow="2"
     inkscape:window-width="1366"
     inkscape:window-height="705"
     id="namedview2143"
     showgrid="false"
     inkscape:zoom="13.111111"
     inkscape:cx="-5.6822035"
     inkscape:cy="8.9999999"
     inkscape:window-x="0"
     inkscape:window-y="24"
     inkscape:window-maximized="1"
     inkscape:current-layer="svg2141" />
  <title
     id="title2131" />
  <desc
     id="desc2133" />
  <defs
     id="defs2135" />
  <g
     id="Page-1"
     style="fill:#dcdce1;fill-rule:evenodd;stroke:none;stroke-width:1;fill-opacity:1">
    <g
       id="Core"
       transform="translate(-255,-381)"
       style="fill:#dcdce1;fill-opacity:1">
      <g
         id="save"
         transform="translate(255,381)"
         style="fill:#dcdce1;fill-opacity:1">
        <path
           d="M 14,0 H 2 C 0.9,0 0,0.9 0,2 v 14 c 0,1.1 0.9,2 2,2 h 14 c 1.1,0 2,-0.9 2,-2 V 4 Z M 9,16 c -1.7,0 -3,-1.3 -3,-3 0,-1.7 1.3,-3 3,-3 1.7,0 3,1.3 3,3 0,1.7 -1.3,3 -3,3 z M 12,6 H 2 V 2 h 10 z"
           id="Shape"
           inkscape:connector-curvature="0"
           style="fill:#dcdce1;fill-opacity:1" />
      </g>
    </g>
  </g>
</svg>
